# xmcd
#
# Track frame offsets:
#	150
#	15130
#	32542
#	42922
#	53482
#	66900
#	86922
#	99422
#	116877
#	128475
#
# Disc length: 1903 seconds
# Revision: 1
# Processed by: cddbd v1.5.2PL0 Copyright (c) Steve Scherf et al.
# Submitted via: dBpowerAMP V12.0
#
DISCID=74076d0a
DTITLE=Gary Boyle - Reminiscing
DYEAR=1900
DGENRE=Country
TTITLE0=Don't Be Angry
TTITLE1=Porch Light's On
TTITLE2=Hello Mary Lou (Goodbye Heart)
TTITLE3=Waltz of The Wind
TTITLE4=I'm So Afraid of Losing You Again
TTITLE5=That Lucky Old Sun
TTITLE6=Games People Play
TTITLE7=Working Man
TTITLE8=Settin The Woods on Fire
TTITLE9=Amazing Grace
EXTD=
EXTT0=
EXTT1=
EXTT2=
EXTT3=
EXTT4=
EXTT5=
EXTT6=
EXTT7=
EXTT8=
EXTT9=
PLAYORDER=
